<svg width="16" height="16" viewBox="0 0 16 16" fill="none" xmlns="http://www.w3.org/2000/svg">
<path d="M4.02878 0C4.48921 0 6.33094 4.14389 6.33094 4.60432C6.33094 5.52518 4.94964 6.44604 4.48921 7.36691C4.02878 8.28777 4.94964 9.20863 5.8705 10.1295C6.22964 10.4886 7.71223 11.9712 8.63309 11.5108C9.55396 11.0504 10.4748 9.66906 11.3957 9.66906C11.8561 9.66906 16 11.5108 16 11.9712C16 13.813 14.6187 15.1942 13.2374 15.6547C11.8561 16.1151 10.9353 16.1151 9.09352 15.6547C7.2518 15.1942 5.8705 14.7338 3.56835 12.4317C1.26619 10.1295 0.805755 8.7482 0.345324 6.90648C-0.115108 5.06475 -0.115108 4.14389 0.345324 2.76259C0.805755 1.38129 2.18705 0 4.02878 0Z" fill="#A6A6A6"/>
</svg>
