<svg width="14" height="14" viewBox="0 0 14 14" fill="none" xmlns="http://www.w3.org/2000/svg">
<path d="M14 2.99995C14 2.46952 13.7893 1.96081 13.4142 1.58574C13.0391 1.21067 12.5304 0.999954 12 0.999954H11.5V0.514017C11.5 0.244954 11.2931 0.0140169 11.0241 0.000579369C10.9565 -0.00267788 10.8889 0.0078244 10.8255 0.0314499C10.762 0.0550754 10.7041 0.0913323 10.6551 0.138024C10.6061 0.184715 10.5671 0.240868 10.5404 0.303081C10.5138 0.365294 10.5 0.432271 10.5 0.499954V0.999954H3.5V0.514017C3.5 0.244954 3.29313 0.0140169 3.02406 0.000579369C2.95646 -0.00267788 2.8889 0.0078244 2.82547 0.0314499C2.76204 0.0550754 2.70407 0.0913323 2.65508 0.138024C2.60608 0.184715 2.56707 0.240868 2.54041 0.303081C2.51375 0.365294 2.50001 0.432271 2.5 0.499954V0.999954H2C1.46957 0.999954 0.960859 1.21067 0.585786 1.58574C0.210714 1.96081 0 2.46952 0 2.99995V3.37495C0 3.40811 0.0131696 3.4399 0.0366117 3.46334C0.0600537 3.48678 0.0918479 3.49995 0.125 3.49995H13.875C13.9082 3.49995 13.9399 3.48678 13.9634 3.46334C13.9868 3.4399 14 3.40811 14 3.37495V2.99995ZM0 12C0 12.5304 0.210714 13.0391 0.585786 13.4142C0.960859 13.7892 1.46957 14 2 14H12C12.5304 14 13.0391 13.7892 13.4142 13.4142C13.7893 13.0391 14 12.5304 14 12V4.5937C14 4.56884 13.9901 4.54499 13.9725 4.52741C13.955 4.50983 13.9311 4.49995 13.9062 4.49995H0.09375C0.068886 4.49995 0.0450403 4.50983 0.0274588 4.52741C0.00987725 4.54499 0 4.56884 0 4.5937V12ZM10.75 5.49995C10.8983 5.49995 11.0433 5.54394 11.1667 5.62635C11.29 5.70876 11.3861 5.8259 11.4429 5.96294C11.4997 6.09999 11.5145 6.25079 11.4856 6.39627C11.4566 6.54176 11.3852 6.6754 11.2803 6.78028C11.1754 6.88517 11.0418 6.9566 10.8963 6.98554C10.7508 7.01448 10.6 6.99963 10.463 6.94286C10.3259 6.8861 10.2088 6.78997 10.1264 6.66663C10.044 6.54329 10 6.39829 10 6.24995C10 6.05104 10.079 5.86028 10.2197 5.71962C10.3603 5.57897 10.5511 5.49995 10.75 5.49995ZM10.75 7.99995C10.8983 7.99995 11.0433 8.04394 11.1667 8.12635C11.29 8.20876 11.3861 8.3259 11.4429 8.46294C11.4997 8.59999 11.5145 8.75079 11.4856 8.89627C11.4566 9.04176 11.3852 9.1754 11.2803 9.28028C11.1754 9.38517 11.0418 9.4566 10.8963 9.48554C10.7508 9.51448 10.6 9.49963 10.463 9.44286C10.3259 9.3861 10.2088 9.28997 10.1264 9.16663C10.044 9.04329 10 8.89829 10 8.74995C10 8.55104 10.079 8.36028 10.2197 8.21962C10.3603 8.07897 10.5511 7.99995 10.75 7.99995ZM8.25 5.49995C8.39834 5.49995 8.54334 5.54394 8.66668 5.62635C8.79001 5.70876 8.88614 5.8259 8.94291 5.96294C8.99967 6.09999 9.01453 6.25079 8.98559 6.39627C8.95665 6.54176 8.88522 6.6754 8.78033 6.78028C8.67544 6.88517 8.5418 6.9566 8.39632 6.98554C8.25083 7.01448 8.10003 6.99963 7.96299 6.94286C7.82594 6.8861 7.70881 6.78997 7.6264 6.66663C7.54399 6.54329 7.5 6.39829 7.5 6.24995C7.5 6.05104 7.57902 5.86028 7.71967 5.71962C7.86032 5.57897 8.05109 5.49995 8.25 5.49995ZM8.25 7.99995C8.39834 7.99995 8.54334 8.04394 8.66668 8.12635C8.79001 8.20876 8.88614 8.3259 8.94291 8.46294C8.99967 8.59999 9.01453 8.75079 8.98559 8.89627C8.95665 9.04176 8.88522 9.1754 8.78033 9.28028C8.67544 9.38517 8.5418 9.4566 8.39632 9.48554C8.25083 9.51448 8.10003 9.49963 7.96299 9.44286C7.82594 9.3861 7.70881 9.28997 7.6264 9.16663C7.54399 9.04329 7.5 8.89829 7.5 8.74995C7.5 8.55104 7.57902 8.36028 7.71967 8.21962C7.86032 8.07897 8.05109 7.99995 8.25 7.99995ZM8.25 10.5C8.39834 10.5 8.54334 10.5439 8.66668 10.6264C8.79001 10.7088 8.88614 10.8259 8.94291 10.9629C8.99967 11.1 9.01453 11.2508 8.98559 11.3963C8.95665 11.5418 8.88522 11.6754 8.78033 11.7803C8.67544 11.8852 8.5418 11.9566 8.39632 11.9855C8.25083 12.0145 8.10003 11.9996 7.96299 11.9429C7.82594 11.8861 7.70881 11.79 7.6264 11.6666C7.54399 11.5433 7.5 11.3983 7.5 11.25C7.5 11.051 7.57902 10.8603 7.71967 10.7196C7.86032 10.579 8.05109 10.5 8.25 10.5ZM5.75 7.99995C5.89834 7.99995 6.04334 8.04394 6.16668 8.12635C6.29001 8.20876 6.38614 8.3259 6.44291 8.46294C6.49968 8.59999 6.51453 8.75079 6.48559 8.89627C6.45665 9.04176 6.38522 9.1754 6.28033 9.28028C6.17544 9.38517 6.0418 9.4566 5.89632 9.48554C5.75083 9.51448 5.60003 9.49963 5.46299 9.44286C5.32594 9.3861 5.20881 9.28997 5.1264 9.16663C5.04399 9.04329 5 8.89829 5 8.74995C5 8.55104 5.07902 8.36028 5.21967 8.21962C5.36032 8.07897 5.55109 7.99995 5.75 7.99995ZM5.75 10.5C5.89834 10.5 6.04334 10.5439 6.16668 10.6264C6.29001 10.7088 6.38614 10.8259 6.44291 10.9629C6.49968 11.1 6.51453 11.2508 6.48559 11.3963C6.45665 11.5418 6.38522 11.6754 6.28033 11.7803C6.17544 11.8852 6.0418 11.9566 5.89632 11.9855C5.75083 12.0145 5.60003 11.9996 5.46299 11.9429C5.32594 11.8861 5.20881 11.79 5.1264 11.6666C5.04399 11.5433 5 11.3983 5 11.25C5 11.051 5.07902 10.8603 5.21967 10.7196C5.36032 10.579 5.55109 10.5 5.75 10.5ZM3.25 7.99995C3.39834 7.99995 3.54334 8.04394 3.66668 8.12635C3.79001 8.20876 3.88614 8.3259 3.94291 8.46294C3.99968 8.59999 4.01453 8.75079 3.98559 8.89627C3.95665 9.04176 3.88522 9.1754 3.78033 9.28028C3.67544 9.38517 3.5418 9.4566 3.39632 9.48554C3.25083 9.51448 3.10003 9.49963 2.96299 9.44286C2.82594 9.3861 2.70881 9.28997 2.6264 9.16663C2.54399 9.04329 2.5 8.89829 2.5 8.74995C2.5 8.55104 2.57902 8.36028 2.71967 8.21962C2.86032 8.07897 3.05109 7.99995 3.25 7.99995ZM3.25 10.5C3.39834 10.5 3.54334 10.5439 3.66668 10.6264C3.79001 10.7088 3.88614 10.8259 3.94291 10.9629C3.99968 11.1 4.01453 11.2508 3.98559 11.3963C3.95665 11.5418 3.88522 11.6754 3.78033 11.7803C3.67544 11.8852 3.5418 11.9566 3.39632 11.9855C3.25083 12.0145 3.10003 11.9996 2.96299 11.9429C2.82594 11.8861 2.70881 11.79 2.6264 11.6666C2.54399 11.5433 2.5 11.3983 2.5 11.25C2.5 11.051 2.57902 10.8603 2.71967 10.7196C2.86032 10.579 3.05109 10.5 3.25 10.5Z" fill="#407BFF"/>
</svg>
