<svg width="24" height="24" viewBox="0 0 24 24" fill="none" xmlns="http://www.w3.org/2000/svg">
<rect width="24" height="24" rx="12" fill="#FB2C36" fill-opacity="0.4"/>
<path d="M11.9992 7.77477C14.8051 7.77477 17.0797 10.0264 17.0797 12.8041V16.4775C17.0797 16.6113 17.026 16.7396 16.9304 16.8342C16.8348 16.9288 16.7052 16.982 16.57 16.982H7.4283C7.29313 16.982 7.1635 16.9288 7.06792 16.8342C6.97235 16.7396 6.91865 16.6113 6.91865 16.4775V12.8041C6.91865 10.0264 9.19326 7.77477 11.9992 7.77477ZM11.5532 5H12.4451C12.4789 5 12.5113 5.01329 12.5352 5.03694C12.5591 5.06059 12.5725 5.09268 12.5725 5.12613V6.63964C12.5725 6.67309 12.5591 6.70517 12.5352 6.72882C12.5113 6.75248 12.4789 6.76577 12.4451 6.76577H11.5532C11.5194 6.76577 11.487 6.75248 11.4631 6.72882C11.4392 6.70517 11.4258 6.67309 11.4258 6.63964V5.12613C11.4258 5.09268 11.4392 5.06059 11.4631 5.03694C11.487 5.01329 11.5194 5 11.5532 5ZM6.66781 6.94959C6.67965 6.93787 6.6937 6.92856 6.70917 6.92222C6.72463 6.91587 6.74121 6.9126 6.75796 6.9126C6.7747 6.9126 6.79128 6.91587 6.80675 6.92222C6.82221 6.92856 6.83627 6.93787 6.8481 6.94959L7.92918 8.01977C7.95306 8.04343 7.96647 8.07549 7.96647 8.10893C7.96647 8.14237 7.95306 8.17443 7.92918 8.19809L7.2985 8.82241C7.27461 8.84605 7.24221 8.85932 7.20843 8.85932C7.17466 8.85932 7.14226 8.84605 7.11837 8.82241L6.03729 7.75223C6.01341 7.72858 6 7.69651 6 7.66307C6 7.62964 6.01341 7.59757 6.03729 7.57392L6.66781 6.94959ZM17.3321 6.94959L17.9628 7.57392C17.9866 7.59756 18 7.6296 18 7.663C18 7.69639 17.9866 7.72843 17.9628 7.75207L16.8817 8.82257C16.8699 8.83429 16.8558 8.8436 16.8404 8.84994C16.8249 8.85629 16.8083 8.85956 16.7916 8.85956C16.7748 8.85956 16.7582 8.85629 16.7428 8.84994C16.7273 8.8436 16.7133 8.83429 16.7014 8.82257L16.0707 8.19824C16.0589 8.18653 16.0495 8.17262 16.0431 8.15731C16.0367 8.142 16.0334 8.12558 16.0334 8.10901C16.0334 8.09243 16.0367 8.07602 16.0431 8.06071C16.0495 8.0454 16.0589 8.03149 16.0707 8.01977L17.152 6.94959C17.1759 6.92596 17.2083 6.91268 17.242 6.91268C17.2758 6.91268 17.3082 6.92596 17.3321 6.94959ZM6.90273 17.991H17.0956C17.2308 17.991 17.3604 18.0441 17.456 18.1388C17.5515 18.2334 17.6052 18.3617 17.6052 18.4955V18.8739C17.6052 18.9073 17.5918 18.9394 17.5679 18.9631C17.544 18.9867 17.5116 19 17.4778 19H6.52049C6.4867 19 6.4543 18.9867 6.4304 18.9631C6.40651 18.9394 6.39308 18.9073 6.39308 18.8739V18.4955C6.39308 18.3617 6.44678 18.2334 6.54235 18.1388C6.63793 18.0441 6.76756 17.991 6.90273 17.991ZM9.25983 12.9932V16.982H10.2791V12.9932H9.25983Z" fill="white"/>
</svg>
