<svg width="71" height="83" viewBox="0 0 71 83" fill="none" xmlns="http://www.w3.org/2000/svg">
<path d="M35.4951 16.4504C52.0967 16.4504 65.5547 29.7996 65.5547 46.2669V68.045C65.5547 68.8383 65.2371 69.5991 64.6716 70.16C64.1061 70.7209 63.3391 71.036 62.5393 71.036H8.45076C7.65103 71.036 6.88405 70.7209 6.31855 70.16C5.75306 69.5991 5.43537 68.8383 5.43537 68.045V46.2669C5.43537 29.7996 18.8934 16.4504 35.4951 16.4504ZM32.8566 0H38.1335C38.3335 0 38.5252 0.0787805 38.6666 0.21901C38.8079 0.35924 38.8874 0.549433 38.8874 0.747748V9.72072C38.8874 9.91903 38.8079 10.1092 38.6666 10.2495C38.5252 10.3897 38.3335 10.4685 38.1335 10.4685H32.8566C32.6567 10.4685 32.4649 10.3897 32.3235 10.2495C32.1822 10.1092 32.1027 9.91903 32.1027 9.72072V0.747748C32.1027 0.549433 32.1822 0.35924 32.3235 0.21901C32.4649 0.0787805 32.6567 0 32.8566 0ZM3.95123 11.5583C4.02124 11.4888 4.10438 11.4336 4.1959 11.396C4.28741 11.3584 4.38551 11.339 4.48457 11.339C4.58364 11.339 4.68174 11.3584 4.77325 11.396C4.86477 11.4336 4.94791 11.4888 5.01792 11.5583L11.4143 17.903C11.5556 18.0432 11.6349 18.2333 11.6349 18.4315C11.6349 18.6297 11.5556 18.8199 11.4143 18.9601L7.68278 22.6614C7.54142 22.8016 7.34975 22.8803 7.1499 22.8803C6.95005 22.8803 6.75838 22.8016 6.61702 22.6614L0.220622 16.3168C0.0793553 16.1766 0 15.9865 0 15.7882C0 15.59 0.0793553 15.3999 0.220622 15.2597L3.95123 11.5583ZM67.0483 11.5583L70.7798 15.2597C70.9208 15.3998 71 15.5898 71 15.7878C71 15.9858 70.9208 16.1757 70.7798 16.3159L64.3834 22.6624C64.3134 22.7319 64.2303 22.787 64.1388 22.8247C64.0473 22.8623 63.9492 22.8817 63.8501 22.8817C63.751 22.8817 63.6529 22.8623 63.5614 22.8247C63.4699 22.787 63.3868 22.7319 63.3168 22.6624L59.5852 18.961C59.5151 18.8916 59.4595 18.8091 59.4216 18.7183C59.3836 18.6276 59.3641 18.5302 59.3641 18.432C59.3641 18.3337 59.3836 18.2364 59.4216 18.1456C59.4595 18.0549 59.5151 17.9724 59.5852 17.903L65.9825 11.5583C66.1239 11.4182 66.3156 11.3395 66.5154 11.3395C66.7153 11.3395 66.9069 11.4182 67.0483 11.5583ZM5.34113 77.018H65.649C66.4487 77.018 67.2157 77.3331 67.7812 77.8941C68.3467 78.455 68.6644 79.2157 68.6644 80.009V82.2523C68.6644 82.4506 68.5849 82.6408 68.4436 82.781C68.3022 82.9212 68.1105 83 67.9105 83H3.07959C2.87966 83 2.68791 82.9212 2.54654 82.781C2.40516 82.6408 2.32574 82.4506 2.32574 82.2523V80.009C2.32574 79.2157 2.64344 78.455 3.20893 77.8941C3.77443 77.3331 4.5414 77.018 5.34113 77.018ZM19.2873 47.3885V71.036H25.3181V47.3885H19.2873Z" fill="#161A41" fill-opacity="0.2"/>
</svg>
