<svg width="24" height="24" viewBox="0 0 24 24" fill="none" xmlns="http://www.w3.org/2000/svg">
<rect width="24" height="24" rx="12" fill="#6976EB" fill-opacity="0.2"/>
<path d="M18.293 13.6886H18C18 12.6677 17.5786 11.6887 16.8284 10.9668C16.0783 10.245 15.0609 9.83946 14 9.83946H13V9.09129C13.3813 8.87945 13.6793 8.55248 13.8478 8.16106C14.0162 7.76965 14.0458 7.33568 13.9319 6.92645C13.8179 6.51722 13.5668 6.15561 13.2175 5.8977C12.8682 5.6398 12.4403 5.5 12 5.5C11.5597 5.5 11.1318 5.6398 10.7825 5.8977C10.4332 6.15561 10.1821 6.51722 10.0681 6.92645C9.9542 7.33568 9.98376 7.76965 10.1522 8.16106C10.3207 8.55248 10.6187 8.87945 11 9.09129V9.83946H10C8.93913 9.83946 7.92172 10.245 7.17157 10.9668C6.42143 11.6887 6 12.6677 6 13.6886H5.707C5.51949 13.6886 5.33966 13.7603 5.20708 13.8879C5.07449 14.0154 5 14.1885 5 14.3689V15.8951C5 16.0755 5.07449 16.2486 5.20708 16.3762C5.33966 16.5038 5.51949 16.5754 5.707 16.5754H6V17.0566C6 17.4394 6.15804 17.8065 6.43934 18.0772C6.72064 18.3479 7.10218 18.5 7.5 18.5H16.5C16.8978 18.5 17.2794 18.3479 17.5607 18.0772C17.842 17.8065 18 17.4394 18 17.0566V16.5754H18.293C18.3858 16.5754 18.4778 16.5578 18.5636 16.5236C18.6493 16.4895 18.7273 16.4393 18.7929 16.3762C18.8586 16.313 18.9107 16.238 18.9462 16.1555C18.9817 16.0729 19 15.9844 19 15.8951V14.3689C19 14.2796 18.9817 14.1911 18.9462 14.1086C18.9107 14.026 18.8586 13.951 18.7929 13.8879C18.7273 13.8247 18.6493 13.7746 18.5636 13.7404C18.4778 13.7062 18.3858 13.6886 18.293 13.6886ZM9.5 15.6132C9.20333 15.6132 8.91332 15.5285 8.66664 15.3699C8.41997 15.2113 8.22771 14.9859 8.11418 14.7221C8.00065 14.4584 7.97094 14.1681 8.02882 13.8881C8.0867 13.6081 8.22956 13.3509 8.43934 13.1491C8.64912 12.9472 8.91639 12.8097 9.20736 12.754C9.49834 12.6983 9.79994 12.7269 10.074 12.8362C10.3481 12.9454 10.5824 13.1304 10.7472 13.3678C10.912 13.6052 11 13.8842 11 14.1697C11 14.5526 10.842 14.9197 10.5607 15.1904C10.2794 15.4611 9.89782 15.6132 9.5 15.6132ZM14.5 15.6132C14.2033 15.6132 13.9133 15.5285 13.6666 15.3699C13.42 15.2113 13.2277 14.9859 13.1142 14.7221C13.0006 14.4584 12.9709 14.1681 13.0288 13.8881C13.0867 13.6081 13.2296 13.3509 13.4393 13.1491C13.6491 12.9472 13.9164 12.8097 14.2074 12.754C14.4983 12.6983 14.7999 12.7269 15.074 12.8362C15.3481 12.9454 15.5824 13.1304 15.7472 13.3678C15.912 13.6052 16 13.8842 16 14.1697C16 14.5526 15.842 14.9197 15.5607 15.1904C15.2794 15.4611 14.8978 15.6132 14.5 15.6132Z" fill="#6976EB"/>
</svg>
