<svg width="88" height="74" viewBox="0 0 88 74" fill="none" xmlns="http://www.w3.org/2000/svg">
<path d="M83.556 53.5408H81.7143C81.7143 46.866 79.0653 40.4646 74.3501 35.7448C69.6349 31.025 63.2397 28.3734 56.5714 28.3734H50.2857V23.4815C52.6824 22.0964 54.5554 19.9585 55.6145 17.3993C56.6735 14.84 56.8593 12.0025 56.1431 9.32679C55.4268 6.65108 53.8485 4.28671 51.653 2.60038C49.4575 0.914047 46.7674 0 44 0C41.2326 0 38.5425 0.914047 36.347 2.60038C34.1515 4.28671 32.5732 6.65108 31.8569 9.32679C31.1407 12.0025 31.3265 14.84 32.3855 17.3993C33.4446 19.9585 35.3176 22.0964 37.7143 23.4815V28.3734H31.4286C24.7603 28.3734 18.3651 31.025 13.6499 35.7448C8.93469 40.4646 6.28571 46.866 6.28571 53.5408H4.444C3.26538 53.5408 2.13503 54.0094 1.30162 54.8437C0.468206 55.6779 0 56.8093 0 57.9891V67.968C0 69.1478 0.468206 70.2792 1.30162 71.1134C2.13503 71.9476 3.26538 72.4163 4.444 72.4163H6.28571V75.5622C6.28571 78.0653 7.27908 80.4658 9.04728 82.2357C10.8155 84.0057 13.2137 85 15.7143 85H72.2857C74.7863 85 77.1845 84.0057 78.9527 82.2357C80.7209 80.4658 81.7143 78.0653 81.7143 75.5622V72.4163H83.556C84.1396 72.4163 84.7175 72.3013 85.2566 72.0777C85.7958 71.8542 86.2857 71.5265 86.6984 71.1134C87.111 70.7004 87.4384 70.21 87.6617 69.6703C87.8851 69.1306 88 68.5521 88 67.968V57.9891C88 57.4049 87.8851 56.8265 87.6617 56.2868C87.4384 55.7471 87.111 55.2567 86.6984 54.8437C86.2857 54.4306 85.7958 54.1029 85.2566 53.8794C84.7175 53.6558 84.1396 53.5408 83.556 53.5408ZM28.2857 66.1245C26.4209 66.1245 24.598 65.5709 23.0475 64.5339C21.497 63.4969 20.2885 62.0229 19.5748 60.2984C18.8612 58.5738 18.6745 56.6762 19.0383 54.8455C19.4021 53.0147 20.3001 51.3331 21.6187 50.0132C22.9373 48.6933 24.6173 47.7944 26.4463 47.4303C28.2753 47.0661 30.171 47.253 31.8939 47.9673C33.6167 48.6817 35.0893 49.8913 36.1253 51.4434C37.1613 52.9954 37.7143 54.8201 37.7143 56.6867C37.7143 59.1898 36.7209 61.5903 34.9527 63.3602C33.1845 65.1301 30.7863 66.1245 28.2857 66.1245ZM59.7143 66.1245C57.8495 66.1245 56.0266 65.5709 54.4761 64.5339C52.9255 63.4969 51.717 62.0229 51.0034 60.2984C50.2898 58.5738 50.1031 56.6762 50.4669 54.8455C50.8307 53.0147 51.7287 51.3331 53.0473 50.0132C54.3659 48.6933 56.0459 47.7944 57.8749 47.4303C59.7038 47.0661 61.5996 47.253 63.3224 47.9673C65.0453 48.6817 66.5178 49.8913 67.5539 51.4434C68.5899 52.9954 69.1429 54.8201 69.1429 56.6867C69.1429 59.1898 68.1495 61.5903 66.3813 63.3602C64.6131 65.1301 62.2149 66.1245 59.7143 66.1245Z" fill="#161A41" fill-opacity="0.2"/>
</svg>
