<svg width="131" height="101" viewBox="0 0 131 101" fill="none" xmlns="http://www.w3.org/2000/svg">
<path d="M71.9059 62.8595V39.827C71.9059 38.0143 71.2909 36.4958 70.061 35.2717C68.831 34.0476 67.3107 33.4334 65.5 33.4291C63.6893 33.4248 62.1689 34.039 60.939 35.2717C59.7091 36.5044 59.0941 38.0228 59.0941 39.827V65.2587C59.0941 66.1118 59.2543 66.9392 59.5746 67.7411C59.8949 68.543 60.3753 69.2617 61.0159 69.8972L78.9523 87.8113C80.1267 88.9843 81.6214 89.5708 83.4364 89.5708C85.2514 89.5708 86.7461 88.9843 87.9205 87.8113C89.0949 86.6384 89.6821 85.1455 89.6821 83.3328C89.6821 81.5201 89.0949 80.0272 87.9205 78.8543L71.9059 62.8595ZM65.5 123C57.4927 123 49.9935 121.481 43.0026 118.445C36.0117 115.408 29.9261 111.302 24.7459 106.129C19.5657 100.955 15.4552 94.8768 12.4146 87.8945C9.37392 80.9123 7.85146 73.4203 7.84719 65.4187C7.84292 57.417 9.36538 49.9272 12.4146 42.9492C15.4638 35.9712 19.5721 29.8932 24.7395 24.7151C29.9069 19.5371 35.9924 15.4318 42.9962 12.3992C49.9999 9.36654 57.5012 7.84597 65.5 7.83744C73.4988 7.82891 81.0001 9.34948 88.0038 12.3992C95.0076 15.4488 101.093 19.5542 106.261 24.7151C111.428 29.8761 115.538 35.9541 118.592 42.9492C121.645 49.9442 123.166 57.4341 123.153 65.4187C123.14 73.4033 121.62 80.8952 118.592 87.8945C115.564 94.8938 111.454 100.972 106.261 106.129C101.068 111.285 94.9819 115.391 88.0038 118.445C81.0257 121.498 73.5244 123.017 65.5 123ZM1.76161 28.9506C0.587204 27.7776 0 26.2848 0 24.472C0 22.6593 0.587204 21.1664 1.76161 19.9935L20.0183 1.75943C21.1927 0.586474 22.6874 0 24.5024 0C26.3174 0 27.8121 0.586474 28.9866 1.75943C30.161 2.93238 30.7482 4.42522 30.7482 6.23796C30.7482 8.05071 30.161 9.54355 28.9866 10.7165L10.7298 28.9506C9.55542 30.1235 8.06072 30.71 6.24572 30.71C4.43073 30.71 2.93602 30.1235 1.76161 28.9506ZM129.238 28.9506C128.064 30.1235 126.569 30.71 124.754 30.71C122.939 30.71 121.445 30.1235 120.27 28.9506L102.013 10.7165C100.839 9.54355 100.252 8.05071 100.252 6.23796C100.252 4.42522 100.839 2.93238 102.013 1.75943C103.188 0.586474 104.683 0 106.498 0C108.313 0 109.807 0.586474 110.982 1.75943L129.238 19.9935C130.413 21.1664 131 22.6593 131 24.472C131 26.2848 130.413 27.7776 129.238 28.9506Z" fill="#161A41" fill-opacity="0.2"/>
</svg>
