<svg width="24" height="24" viewBox="0 0 24 24" fill="none" xmlns="http://www.w3.org/2000/svg">
<rect width="24" height="24" rx="12" fill="#6976EB" fill-opacity="0.2"/>
<path d="M12.6846 12.1437V9.70936C12.6846 9.51777 12.6189 9.35728 12.4874 9.2279C12.356 9.09852 12.1935 9.03361 12 9.03316C11.8065 9.0327 11.644 9.09762 11.5126 9.2279C11.3811 9.35818 11.3154 9.51867 11.3154 9.70936V12.3973C11.3154 12.4874 11.3325 12.5749 11.3667 12.6596C11.401 12.7444 11.4523 12.8203 11.5208 12.8875L13.4377 14.7809C13.5632 14.9048 13.7229 14.9668 13.9169 14.9668C14.1108 14.9668 14.2706 14.9048 14.3961 14.7809C14.5216 14.6569 14.5844 14.4991 14.5844 14.3075C14.5844 14.1159 14.5216 13.9582 14.3961 13.8342L12.6846 12.1437ZM12 18.5C11.1443 18.5 10.3428 18.3395 9.5957 18.0185C8.84857 17.6976 8.19821 17.2637 7.6446 16.7168C7.09099 16.17 6.6517 15.5276 6.32675 14.7897C6.00179 14.0517 5.83909 13.2599 5.83863 12.4142C5.83817 11.5685 6.00088 10.7769 6.32675 10.0393C6.65262 9.30183 7.09167 8.65944 7.64391 8.11217C8.19615 7.5649 8.84652 7.131 9.59501 6.81048C10.3435 6.48996 11.1452 6.32925 12 6.32835C12.8548 6.32745 13.6565 6.48816 14.405 6.81048C15.1535 7.1328 15.8038 7.5667 16.3561 8.11217C16.9083 8.65764 17.3476 9.30003 17.6739 10.0393C18.0003 10.7787 18.1627 11.5703 18.1614 12.4142C18.16 13.2581 17.9975 14.0499 17.6739 14.7897C17.3503 15.5294 16.9111 16.1718 16.3561 16.7168C15.8011 17.2619 15.1507 17.6958 14.405 18.0185C13.6592 18.3413 12.8576 18.5018 12 18.5ZM5.18826 8.55981C5.06275 8.43584 5 8.27806 5 8.08647C5 7.89488 5.06275 7.7371 5.18826 7.61313L7.13936 5.68596C7.26487 5.56199 7.42461 5.5 7.61858 5.5C7.81255 5.5 7.97229 5.56199 8.0978 5.68596C8.22331 5.80993 8.28606 5.96771 8.28606 6.1593C8.28606 6.35089 8.22331 6.50867 8.0978 6.63264L6.1467 8.55981C6.02119 8.68378 5.86145 8.74577 5.66748 8.74577C5.47351 8.74577 5.31377 8.68378 5.18826 8.55981ZM18.8117 8.55981C18.6862 8.68378 18.5265 8.74577 18.3325 8.74577C18.1385 8.74577 17.9788 8.68378 17.8533 8.55981L15.9022 6.63264C15.7767 6.50867 15.7139 6.35089 15.7139 6.1593C15.7139 5.96771 15.7767 5.80993 15.9022 5.68596C16.0277 5.56199 16.1874 5.5 16.3814 5.5C16.5754 5.5 16.7351 5.56199 16.8606 5.68596L18.8117 7.61313C18.9372 7.7371 19 7.89488 19 8.08647C19 8.27806 18.9372 8.43584 18.8117 8.55981Z" fill="#6976EB"/>
</svg>
