<svg width="24" height="38" viewBox="0 0 24 38" fill="none" xmlns="http://www.w3.org/2000/svg">
<mask id="path-1-inside-1_2294_5219" fill="white">
<path d="M0 12C0 5.37258 5.37258 0 12 0V0C18.6274 0 24 5.37258 24 12V26C24 32.6274 18.6274 38 12 38V38C5.37258 38 0 32.6274 0 26V12Z"/>
</mask>
<path d="M0 12C0 5.37258 5.37258 0 12 0V0C18.6274 0 24 5.37258 24 12V26C24 32.6274 18.6274 38 12 38V38C5.37258 38 0 32.6274 0 26V12Z" fill="white" fill-opacity="0.05"/>
<path d="M0 0H24H0M0 0M24 38H0H24M24 38M0 38V0V38M12 0C20.8366 0 28 7.16344 28 16V22C28 30.8366 20.8366 38 12 38C16.4183 38 20 32.6274 20 26V12C20 5.37258 16.4183 0 12 0Z" fill="#6976EB" mask="url(#path-1-inside-1_2294_5219)"/>
</svg>
