<svg width="28" height="28" viewBox="0 0 28 28" fill="none" xmlns="http://www.w3.org/2000/svg">
<path d="M15.6952 1.9619C15.6952 1.44158 15.4885 0.942557 15.1206 0.574629C14.7527 0.2067 14.2537 0 13.7333 0C13.213 0 12.714 0.2067 12.3461 0.574629C11.9781 0.942557 11.7714 1.44158 11.7714 1.9619V11.7714H1.9619C1.44158 11.7714 0.942557 11.9781 0.574629 12.3461C0.2067 12.714 0 13.213 0 13.7333C0 14.2537 0.2067 14.7527 0.574629 15.1206C0.942557 15.4885 1.44158 15.6952 1.9619 15.6952H11.7714V25.5048C11.7714 26.0251 11.9781 26.5241 12.3461 26.892C12.714 27.26 13.213 27.4667 13.7333 27.4667C14.2537 27.4667 14.7527 27.26 15.1206 26.892C15.4885 26.5241 15.6952 26.0251 15.6952 25.5048V15.6952H25.5048C26.0251 15.6952 26.5241 15.4885 26.892 15.1206C27.26 14.7527 27.4667 14.2537 27.4667 13.7333C27.4667 13.213 27.26 12.714 26.892 12.3461C26.5241 11.9781 26.0251 11.7714 25.5048 11.7714H15.6952V1.9619Z" fill="white"/>
</svg>
