<svg width="24" height="21" viewBox="0 0 24 21" fill="none" xmlns="http://www.w3.org/2000/svg">
<path d="M7.54939 3.94992C7.54939 3.43121 7.65443 2.91758 7.85851 2.43835C8.06259 1.95913 8.36171 1.52369 8.73879 1.15691C9.11588 0.790121 9.56355 0.499172 10.0562 0.30067C10.5489 0.102168 11.077 0 11.6103 0C12.1435 0 12.6716 0.102168 13.1643 0.30067C13.657 0.499172 14.1046 0.790121 14.4817 1.15691C14.8588 1.52369 15.1579 1.95913 15.362 2.43835C15.5661 2.91758 15.6711 3.43121 15.6711 3.94992C15.6711 4.99751 15.2433 6.00219 14.4817 6.74294C13.7202 7.4837 12.6873 7.89985 11.6103 7.89985C10.5332 7.89985 9.50035 7.4837 8.73879 6.74294C7.97723 6.00219 7.54939 4.99751 7.54939 3.94992ZM2.9084 9.0284C3.6777 9.0284 4.41548 8.73114 4.95945 8.20203C5.50342 7.67292 5.80902 6.9553 5.80902 6.20702C5.80902 5.45875 5.50342 4.74112 4.95945 4.21201C4.41548 3.6829 3.6777 3.38565 2.9084 3.38565C2.13911 3.38565 1.40133 3.6829 0.857358 4.21201C0.313387 4.74112 0.00778672 5.45875 0.00778672 6.20702C0.00778672 6.9553 0.313387 7.67292 0.857358 8.20203C1.40133 8.73114 2.13911 9.0284 2.9084 9.0284ZM23.2127 6.20702C23.2127 6.9553 22.9071 7.67292 22.3632 8.20203C21.8192 8.73114 21.0814 9.0284 20.3121 9.0284C19.5428 9.0284 18.805 8.73114 18.2611 8.20203C17.7171 7.67292 17.4115 6.9553 17.4115 6.20702C17.4115 5.45875 17.7171 4.74112 18.2611 4.21201C18.805 3.6829 19.5428 3.38565 20.3121 3.38565C21.0814 3.38565 21.8192 3.6829 22.3632 4.21201C22.9071 4.74112 23.2127 5.45875 23.2127 6.20702ZM9.86989 10.1569C8.26875 10.1569 6.96927 11.4209 6.96927 12.9783V15.7997C6.96927 16.9969 7.45823 18.1451 8.32858 18.9917C9.19894 19.8383 10.3794 20.3139 11.6103 20.3139C12.8411 20.3139 14.0216 19.8383 14.8919 18.9917C15.7623 18.1451 16.2512 16.9969 16.2512 15.7997V12.9783C16.2512 11.4209 14.9518 10.1569 13.3506 10.1569H9.86989ZM4.64878 12.9783C4.64878 12.326 4.77408 11.7031 5.00613 11.132L2.1496 11.8769C1.40696 12.0705 0.773728 12.543 0.389081 13.1905C0.00443478 13.8381 -0.100159 14.6077 0.0982861 15.3302L0.548462 16.9666C0.706249 17.5393 0.978476 18.0762 1.3496 18.5465C1.72072 19.0169 2.18346 19.4115 2.7114 19.7079C3.23934 20.0042 3.82213 20.1965 4.42649 20.2738C5.03084 20.3511 5.64493 20.3118 6.23367 20.1582L6.27312 20.1469C5.22387 18.9282 4.64885 17.3893 4.64878 15.7997V12.9783ZM18.5717 15.7997C18.5717 17.4541 17.9615 18.9709 16.9474 20.1491L16.9845 20.1582C18.1732 20.4677 19.4397 20.3054 20.5053 19.7069C21.571 19.1084 22.3487 18.1227 22.6674 16.9666L23.1176 15.3302C23.316 14.6077 23.2114 13.8381 22.8268 13.1905C22.4421 12.543 21.8089 12.0705 21.0663 11.8769L18.2167 11.132C18.4464 11.7053 18.5717 12.3283 18.5717 12.9783V15.7997Z" fill="#808080"/>
</svg>
