<svg width="23" height="21" viewBox="0 0 23 21" fill="none" xmlns="http://www.w3.org/2000/svg">
<path fill-rule="evenodd" clip-rule="evenodd" d="M9.92684 0.510803C10.3634 0.179402 10.8964 0 11.4444 0C11.9925 0 12.5255 0.179402 12.9621 0.510803L14.0664 1.34909C17.3105 3.81361 20.0896 6.83637 22.2735 10.2757L22.6282 10.8329C22.7888 11.0859 22.8786 11.3773 22.8881 11.6768C22.8975 11.9763 22.8264 12.2729 22.6821 12.5355C22.5378 12.7981 22.3256 13.0172 22.0677 13.1698C21.8098 13.3223 21.5157 13.4029 21.216 13.4029H20.0598C20.1268 14.9423 20.0431 16.4833 19.8089 18.0076C19.6961 18.7413 19.3242 19.4103 18.7607 19.8935C18.1971 20.3766 17.4791 20.6419 16.7368 20.6413H13.536V15.1264C13.536 14.5717 13.3156 14.0397 12.9234 13.6474C12.5311 13.2552 11.9992 13.0348 11.4444 13.0348C10.8897 13.0348 10.3578 13.2552 9.96551 13.6474C9.57328 14.0397 9.35292 14.5717 9.35292 15.1264V20.6413H6.15206C5.41042 20.6401 4.69357 20.3742 4.13065 19.8913C3.56772 19.4085 3.19574 18.7405 3.0817 18.0076C2.84745 16.4833 2.76379 14.9406 2.83072 13.4029H1.67285C1.3732 13.4029 1.07906 13.3223 0.821171 13.1698C0.56328 13.0172 0.351099 12.7981 0.206796 12.5355C0.0624921 12.2729 -0.00863794 11.9763 0.000836801 11.6768C0.0103115 11.3773 0.100043 11.0859 0.260657 10.8329L0.613706 10.274C2.79824 6.83516 5.57793 3.81296 8.82251 1.34909L9.92684 0.510803Z" fill="#808080"/>
</svg>
