<svg width="21" height="5" viewBox="0 0 21 5" fill="none" xmlns="http://www.w3.org/2000/svg">
<path d="M2.28889 0C1.03 0 0 1.03 0 2.28889C0 3.54778 1.03 4.57778 2.28889 4.57778C3.54778 4.57778 4.57778 3.54778 4.57778 2.28889C4.57778 1.03 3.54778 0 2.28889 0ZM18.3111 0C17.0522 0 16.0222 1.03 16.0222 2.28889C16.0222 3.54778 17.0522 4.57778 18.3111 4.57778C19.57 4.57778 20.6 3.54778 20.6 2.28889C20.6 1.03 19.57 0 18.3111 0ZM10.3 0C9.04111 0 8.01111 1.03 8.01111 2.28889C8.01111 3.54778 9.04111 4.57778 10.3 4.57778C11.5589 4.57778 12.5889 3.54778 12.5889 2.28889C12.5889 1.03 11.5589 0 10.3 0Z" fill="#808080"/>
</svg>
