<svg width="19" height="23" viewBox="0 0 19 23" fill="none" xmlns="http://www.w3.org/2000/svg">
<path d="M10.3 8.01111H16.5944L10.3 1.71667V8.01111ZM2.28889 0H11.4444L18.3111 6.86667V20.6C18.3111 21.2071 18.07 21.7892 17.6407 22.2185C17.2115 22.6477 16.6293 22.8889 16.0222 22.8889H2.28889C1.68184 22.8889 1.09965 22.6477 0.6704 22.2185C0.24115 21.7892 0 21.2071 0 20.6V2.28889C0 1.01856 1.01856 0 2.28889 0ZM3.43333 20.6H5.72222V13.7333H3.43333V20.6ZM8.01111 20.6H10.3V11.4444H8.01111V20.6ZM12.5889 20.6H14.8778V16.0222H12.5889V20.6Z" fill="#808080"/>
</svg>
