<svg width="16" height="17" viewBox="0 0 16 17" fill="none" xmlns="http://www.w3.org/2000/svg">
<path d="M16 15.3V3.4C16 2.46245 15.2027 1.7 14.2222 1.7H12.4444V0H10.6667V1.7H5.33333V0H3.55556V1.7H1.77778C0.797333 1.7 0 2.46245 0 3.4V15.3C0 16.2376 0.797333 17 1.77778 17H14.2222C15.2027 17 16 16.2376 16 15.3ZM5.33333 13.6H3.55556V11.9H5.33333V13.6ZM5.33333 10.2H3.55556V8.5H5.33333V10.2ZM8.88889 13.6H7.11111V11.9H8.88889V13.6ZM8.88889 10.2H7.11111V8.5H8.88889V10.2ZM12.4444 13.6H10.6667V11.9H12.4444V13.6ZM12.4444 10.2H10.6667V8.5H12.4444V10.2ZM14.2222 5.95H1.77778V4.25H14.2222V5.95Z" fill="#A6A6A6"/>
</svg>
