<svg width="21" height="42" viewBox="0 0 21 42" fill="none" xmlns="http://www.w3.org/2000/svg">
<path d="M10.3015 7.14209C12.2737 7.14209 13.8726 5.54328 13.8726 3.57105C13.8726 1.59881 12.2737 0 10.3015 0C8.32928 0 6.73047 1.59881 6.73047 3.57105C6.73047 5.54328 8.32928 7.14209 10.3015 7.14209Z" fill="white"/>
<path d="M18.9915 27.2682L13.876 13.2117L13.8466 13.0672C13.8466 12.862 14.0189 12.6958 14.2335 12.6958C14.4162 12.6958 14.5694 12.8178 14.6101 12.9806L18.0877 22.074C18.3188 22.5943 19.2694 22.9397 19.8944 22.9397C20.7298 22.9397 20.8164 21.2992 20.7982 21.2083L17.3207 12.2421C17.0185 10.2328 14.9893 8.22266 12.6735 8.22266H8.14156C5.82579 8.22266 3.64594 10.2328 3.3438 12.2421L0.0220833 21.2083C-0.0532333 21.3806 0.0220826 22.9397 0.925016 22.9397C1.62711 22.9397 2.5612 22.6947 2.73175 22.074L6.08637 12.9416C6.1153 12.8687 6.16557 12.8062 6.2306 12.7624C6.29563 12.7185 6.37239 12.6953 6.45083 12.6958C6.66466 12.6958 6.83694 12.862 6.83694 13.0663L6.8127 13.1987L1.82882 27.2682C1.81929 27.3098 1.82882 28.0915 1.82882 28.1339C1.82882 28.4335 2.55168 28.9996 2.86593 28.9996H6.08117V40.3361C6.08117 41.2364 6.87416 41.9853 7.81259 41.9853C8.75102 41.9853 9.54401 41.2356 9.54401 40.3361V28.9919C9.54401 28.7469 11.2754 28.7547 11.2754 28.9996V40.2539C11.2754 41.1542 12.0693 41.9853 13.0068 41.9853C13.947 41.9853 14.7383 41.1533 14.7383 40.2539V28.9996H18.0877C18.4011 28.9996 18.9915 28.4335 18.9915 28.1339C18.9915 28.0647 19.0166 27.328 18.9915 27.2682Z" fill="white"/>
</svg>
