<svg width="16" height="43" viewBox="0 0 16 43" fill="none" xmlns="http://www.w3.org/2000/svg">
<path d="M3.46667 40.301C3.46667 41.3696 4.13226 42.0344 5.2 42.0344C6.27033 42.0344 6.93333 41.3696 6.93333 40.301V23.8344H8.66666V40.301C8.66666 41.3679 9.3314 42.0344 10.4 42.0344C11.4686 42.0344 12.1333 41.3696 12.1333 40.301V12.5677H13V22.8065C13 24.8822 15.6052 24.8822 15.6 22.8065V12.2739C15.6 9.98071 13.9481 8.23438 11.2667 8.23438H4.33333C1.88933 8.23438 0 9.72417 0 12.2098V22.9677C0 24.701 2.6 24.701 2.6 22.9677V12.5677H3.46667V40.301Z" fill="white"/>
<path d="M7.69219 7.15C9.6666 7.15 11.2672 5.54942 11.2672 3.575C11.2672 1.60058 9.6666 0 7.69219 0C5.71777 0 4.11719 1.60058 4.11719 3.575C4.11719 5.54942 5.71777 7.15 7.69219 7.15Z" fill="white"/>
</svg>
