<svg width="19" height="21" viewBox="0 0 19 21" fill="none" xmlns="http://www.w3.org/2000/svg">
<path d="M0.78125 16.7604V12.6042C0.78125 10.7917 2.25 9.3125 4.07292 9.3125H14.6667C16.4792 9.3125 17.9583 10.7813 17.9583 12.6042V16.7604C17.9583 18.5729 16.4896 20.0521 14.6667 20.0521H4.07292C2.25 20.0521 0.78125 18.5833 0.78125 16.7604Z" stroke="#A7A7A7" stroke-width="1.5625" stroke-linecap="round" stroke-linejoin="round"/>
<path d="M4 9.32292V6.14584C4 3.1875 6.40624 0.78125 9.36458 0.78125C12.3229 0.78125 14.7292 3.1875 14.7292 6.14584V9.32292H4Z" stroke="#A7A7A7" stroke-width="1.5625" stroke-linecap="round" stroke-linejoin="round"/>
<path d="M9.36328 16.832V14.1445" stroke="#A7A7A7" stroke-width="1.5625" stroke-linecap="round" stroke-linejoin="round"/>
<path d="M9.36588 14.6888C9.95844 14.6888 10.4388 14.2084 10.4388 13.6159C10.4388 13.0233 9.95844 12.543 9.36588 12.543C8.77333 12.543 8.29297 13.0233 8.29297 13.6159C8.29297 14.2084 8.77333 14.6888 9.36588 14.6888Z" stroke="#A7A7A7" stroke-width="1.5625" stroke-linecap="round" stroke-linejoin="round"/>
</svg>
